<svg xmlns="http://www.w3.org/2000/svg" width="48" height="48"><path d="M24 3c-.602 0-1 .398-1 1v3h2V4c0-.602-.398-1-1-1zm0 0" fill="#90a4ae"/><path d="M28 10h-8V7c0-.602.398-1 1-1h6c.602 0 1 .398 1 1zm0 0" fill="#cfd8dc"/><path d="M30 17H18V9c0-.602.398-1 1-1h10c.602 0 1 .398 1 1zm0 0" fill="#cfd8dc"/><path d="M34 12H14s-.2 5.7 4.102 10.102C19.699 23.398 24 23 24 23s4.3.398 5.898-.898C34.2 17.699 34 12 34 12zm0 0" fill="#455a64"/><path d="M15.3 18c.598 1.398 1.5 2.8 2.802 4.102C19.699 23.398 24 28 24 28s4.3-4.602 5.898-5.898C31.2 20.8 32.102 19.398 32.7 18zm0 0" fill="#e64a19"/><path d="M44 23c-3 0-4-2-4-2s-1 2-4 2-4-2-4-2-1 2-4 2-4 3-4 3-1-3-4-3-4-2-4-2-1 2-4 2-4-2-4-2-1 2-4 2v22h40zm0 0" fill="#2196f3"/><path d="M31 12c0 3.7-7 9-7 9s-7-5.2-7-9zm-6 13v-3a1.001 1.001 0 0 0-2 0v3c0 .5.398 1 1 1s1-.398 1-1zm0 0" fill="#ff5722"/><path d="M20.602 18h6.796C29.2 16.2 31 13.898 31 12H17c0 1.898 1.8 4.2 3.602 6zm0 0" fill="#607d8b"/><path d="M36 42c-2 0-3.3-.7-4-1.398C31.2 41.3 30 42 28 42s-3.3-.7-4-1.398C23.2 41.3 22 42 20 42s-3.3-.7-4-1.398C15.2 41.3 14 42 12 42v-2c2.3 0 3.102-1.398 3.102-1.5h1.796S17.7 39.898 20 39.898c2.3 0 3.102-1.398 3.102-1.5h1.796S25.7 39.801 28 39.801c2.3 0 3.102-1.403 3.102-1.5h1.796S33.7 39.699 36 39.699zm-4-6c-2 0-3.3-.7-4-1.398C27.2 35.3 26 36 24 36s-3.3-.7-4-1.398C19.2 35.3 18 36 16 36v-2c2.3 0 3.102-1.398 3.102-1.5h1.796S21.7 33.898 24 33.898c2.3 0 3.102-1.398 3.102-1.5h1.796S29.7 33.801 32 33.801zm-4-6c-2 0-3.3-.7-4-1.398C23.2 29.3 22 30 20 30v-2c2.3 0 3.102-1.398 3.102-1.5h1.796S25.7 27.898 28 27.898zm0 0" fill="#0d47a1"/></svg>