<svg xmlns="http://www.w3.org/2000/svg" width="48" height="48"><path d="M8.445 32.898a3.999 3.999 0 0 1 5.657 0 3.999 3.999 0 0 1 0 5.657c-1.563 1.562-7.778 2.12-7.778 2.12s.559-6.214 2.121-7.777zm0 0" fill="#ff3d00"/><path d="M9.86 34.313a2 2 0 1 1 2.828 2.828c-.782.78-3.536.71-3.536.71s-.074-2.753.707-3.538zm0 0" fill="#ffeb3b"/><path d="M29.656 8.86c-2.12 2.117-20.504 20.503-20.504 20.503l8.485 8.485L38.14 17.344c1.12-1.117 2.039-4.39 2.66-7.242l-3.903-3.903c-2.851.625-6.125 1.543-7.242 2.66zm0 0" fill="#d1c4e9"/><path d="M21.172 41.387l-2.121-4.95 8.484-8.488-1.414 8.488zm0 0M5.617 25.828l4.95 2.121 8.484-8.484-8.485 1.414zm0 0M36.898 6.2l3.903 3.902c.558-2.559.875-4.782.875-4.782s-2.215.325-4.778.88zm0 0M17.637 37.852h-2.828l-5.657-5.66v-2.829zm0 0" fill="#7e57c2"/><path d="M31.656 17.344c0 1.105-.894 2-2 2a1.999 1.999 0 1 1 0-4c1.106 0 2 .894 2 2zm0 0M26.707 22.293a1.999 1.999 0 1 1-4 0 1.999 1.999 0 1 1 4 0zm0 0M21.758 27.242c0 1.106-.895 2-2 2-1.106 0-2-.894-2-2 0-1.105.894-2 2-2 1.105 0 2 .895 2 2zm0 0" fill="#311b92"/></svg>