<svg xmlns="http://www.w3.org/2000/svg" width="48" height="48"><path d="M46.492 31.121l-1.238 3.805-5.707-1.856 1.238-3.804zm0 0M46.664 21.52l.418 3.976-5.969.629-.418-3.98zm0 0M42.918 12.68l2 3.465-5.195 3-2-3.465zm0 0" fill="#78909c"/><path d="M35.902 6.133l3.235 2.347-3.528 4.856-3.234-2.352zm0 0M26.824 3l3.914.832-1.25 5.867-3.91-.832zm0 0M17.262 3.832L21.172 3l1.25 5.867-3.914.832zm0 0M8.863 8.48l3.235-2.351 3.527 4.855-3.234 2.352zm0 0M3.082 16.145l2-3.461 5.195 3-2 3.46zm0 0M.918 25.496l.418-3.976 5.965.625-.418 3.98zm0 0M2.746 34.922l-1.238-3.805 5.707-1.851 1.238 3.804zm0 0" fill="#fb8c00"/><path d="M26 7.105A18.78 18.78 0 0 0 24 7C13.508 7 5 15.508 5 26s8.508 19 19 19c.719 0 1.43-.04 2.125-.117 9.492-1.059 9.43-36.778-.125-37.778zm0 0" fill="#006064"/><path d="M24 45c10.492 0 19-8.508 19-19S34.492 7 24 7" fill="#004d40"/><path d="M40 26c0 8.836-7.164 16-16 16S8 34.836 8 26s7.164-16 16-16 16 7.164 16 16zm0 0" fill="#80cbc4"/><path d="M31.64 15.242a2 2 0 1 0-2.347 3.239 2 2 0 0 0 2.348-3.239zm0 0" fill="#b71c1c"/></svg>