<svg xmlns="http://www.w3.org/2000/svg" width="48" height="48"><path d="M14.54 6h2.124l1.371 5.496h.133l1.309-5.492h2.144l-2.457 8.035V20h-2.113v-5.703zm0 0M21.523 11.922c0-.781.254-1.41.762-1.871.504-.469 1.18-.703 2.035-.703.778 0 1.41.246 1.907.738.496.488.742 1.121.742 1.894v5.235c0 .867-.242 1.547-.727 2.043-.484.496-1.152.742-2.008.742-.824 0-1.476-.258-1.972-.766-.492-.507-.739-1.195-.739-2.054zm1.93 5.445c0 .278.067.496.207.649.133.148.32.222.57.222.254 0 .454-.074.606-.23.148-.153.227-.367.227-.64v-5.52a.694.694 0 0 0-.235-.54c-.148-.132-.351-.203-.598-.203a.791.791 0 0 0-.558.204.71.71 0 0 0-.219.539zm0 0M33.918 9.605V20h-1.875v-1.266c-.348.414-.703.727-1.082.942-.371.215-.734.324-1.086.324-.434 0-.758-.148-.98-.453-.22-.3-.329-.75-.329-1.356V9.605h1.875v7.887c0 .235.04.41.118.52.078.101.207.16.382.16.141 0 .313-.07.52-.215.215-.14.406-.324.582-.543V9.605zm0 0" fill="#455a64"/><path d="M38.8 26.438c0-2.34-1.94-4.239-4.331-4.239-3.41-.144-6.903-.203-10.469-.199a248.05 248.05 0 0 0-10.469.2c-2.386 0-4.328 1.898-4.328 4.238A71.46 71.46 0 0 0 9 32a69.65 69.65 0 0 0 .203 5.563c0 2.343 1.938 4.242 4.328 4.242 3.414.14 6.906.199 10.469.195a241.61 241.61 0 0 0 10.469-.195c2.39 0 4.332-1.899 4.332-4.242.14-1.856.207-3.708.199-5.563a69.578 69.578 0 0 0-.2-5.563zm0 0" fill="#fff"/><path d="M33.852 30.348c-.22 0-.368.054-.457.18-.067.09-.149.296-.149.75v.773h1.195v-.774c0-.445-.082-.656-.152-.757-.086-.118-.227-.172-.437-.172zm0 0M26.863 30.387a1.07 1.07 0 0 0-.258.191v5.875c.114.113.22.192.317.242a.734.734 0 0 0 .348.082c.23 0 .3-.09.324-.125.058-.07.12-.218.12-.539V31.11c0-.277-.054-.492-.151-.625-.133-.18-.399-.25-.7-.097zm0 0" fill="#f44336"/><path d="M38.8 26.438c0-2.34-1.94-4.239-4.331-4.239-3.41-.144-6.903-.203-10.469-.199a248.05 248.05 0 0 0-10.469.2c-2.386 0-4.328 1.898-4.328 4.238A71.46 71.46 0 0 0 9 32a69.65 69.65 0 0 0 .203 5.563c0 2.343 1.938 4.242 4.328 4.242 3.414.14 6.906.199 10.469.195a241.61 241.61 0 0 0 10.469-.195c2.39 0 4.332-1.899 4.332-4.242.14-1.856.207-3.708.199-5.563a69.578 69.578 0 0 0-.2-5.563zM15.7 38.383c0 .11-.09.203-.204.203h-2.05a.208.208 0 0 1-.208-.203V27.352h-1.914a.204.204 0 0 1-.203-.204v-1.902c0-.113.094-.207.203-.207h6.293c.113 0 .207.094.207.207v1.902a.205.205 0 0 1-.207.204H15.7zm7.296 0c0 .11-.094.203-.207.203h-1.82a.205.205 0 0 1-.207-.203v-.551a3.75 3.75 0 0 1-.739.559c-.398.226-.777.336-1.16.336-.488 0-.863-.176-1.117-.516-.238-.324-.36-.805-.36-1.422v-8.102c0-.109.09-.203.208-.203h1.82c.113 0 .203.094.203.203v7.43c0 .242.047.344.074.383.012.016.051.066.204.066.054 0 .171-.023.39-.168.176-.117.332-.261.473-.425v-7.285c0-.11.094-.204.207-.204h1.82c.113 0 .207.094.207.203v9.696zM30 36.37c0 .738-.16 1.313-.473 1.711-.328.418-.797.625-1.398.625-.383 0-.734-.078-1.047-.234a2.287 2.287 0 0 1-.477-.325v.235a.205.205 0 0 1-.207.203h-1.835a.203.203 0 0 1-.208-.203v-13.14c0-.114.09-.204.207-.204h1.836c.114 0 .207.09.207.203v3.719c.149-.137.31-.25.473-.344.309-.172.625-.258.942-.258.64 0 1.14.239 1.484.707.328.45.492 1.102.492 1.934zm6.73-2.605a.205.205 0 0 1-.207.203H33.25v1.62c0 .595.082.849.148.954.051.086.153.2.438.2.23 0 .387-.056.469-.165.035-.058.136-.281.136-.988v-.676c0-.113.094-.203.207-.203h1.875c.114 0 .204.09.204.203v.73c0 1.044-.25 1.844-.739 2.383-.488.543-1.226.82-2.195.82-.871 0-1.574-.296-2.078-.87-.5-.57-.758-1.356-.758-2.332v-4.356c0-.89.277-1.629.832-2.195.55-.567 1.273-.856 2.145-.856.886 0 1.586.27 2.07.801.48.527.723 1.285.723 2.254v2.473zm0 0" fill="#f44336"/></svg>